<svg xmlns="http://www.w3.org/2000/svg" width="30.692" height="29.951" viewBox="0 0 30.692 29.951"><defs><style>.a{fill:#00205b;}</style></defs><path class="a" d="M14.882,17.187V32.951H11.729V20.34H8.576V17.187h6.306M27.493,20.34V29.8a3.142,3.142,0,0,1-3.153,3.153H21.187A3.153,3.153,0,0,1,18.035,29.8V20.34a3.153,3.153,0,0,1,3.153-3.153H24.34a3.152,3.152,0,0,1,3.153,3.153m-6.306,0V29.8H24.34V20.34H21.187M17.246,3A16.577,16.577,0,0,1,28.123,7.1l4.1-4.1V14.035H21.187l4.13-4.13A12.565,12.565,0,0,0,5.266,15.611L1.53,14.381A16.574,16.574,0,0,1,17.246,3Z" transform="translate(-1.53 -3)"/></svg>