<svg xmlns="http://www.w3.org/2000/svg" width="30.692" height="29.951" viewBox="0 0 30.692 29.951"><defs><style>.a{fill:#00205b;}</style></defs><path class="a" d="M17.976,3A16.574,16.574,0,0,1,33.692,14.381l-3.736,1.23A12.565,12.565,0,0,0,9.9,9.9l4.13,4.13H3V3L7.1,7.1A16.577,16.577,0,0,1,17.976,3M14.035,17.187V32.951H10.882V20.34H7.729V17.187h6.306M26.646,20.34V29.8a3.142,3.142,0,0,1-3.153,3.153H20.34A3.153,3.153,0,0,1,17.187,29.8V20.34a3.153,3.153,0,0,1,3.153-3.153h3.153a3.152,3.152,0,0,1,3.153,3.153m-6.306,0V29.8h3.153V20.34Z" transform="translate(-3 -3)"/></svg>